<svg width="1100" height="892" viewBox="0 0 1100 892" xmlns="http://www.w3.org/2000/svg" xmlns:xlink="http://www.w3.org/1999/xlink"><svg width="24" height="24" color="#DF1103" fill="none" viewBox="0 0 24 24" id="-alert" x="1074" y="595" xmlns="http://www.w3.org/2000/svg"><path d="M13.925 21h-3.85c-4.63 0-6.945 0-7.799-1.506-.853-1.506.331-3.503 2.7-7.495L6.9 8.752C9.176 4.918 10.313 3 12 3c1.687 0 2.824 1.918 5.1 5.753l1.924 3.245c2.369 3.993 3.553 5.99 2.7 7.496C20.87 21 18.555 21 13.924 21ZM12 17v-4.5M12 8.998v-.01" stroke="currentColor" stroke-width="1.5" stroke-linecap="round" stroke-linejoin="round"/></svg><svg width="24" height="24" color="#2F4660" fill="none" viewBox="0 0 24 24" id="-alert-blue" x="852" y="645" xmlns="http://www.w3.org/2000/svg"><path d="M13.925 21h-3.85c-4.63 0-6.945 0-7.799-1.506-.853-1.506.331-3.503 2.7-7.495L6.9 8.752C9.176 4.918 10.313 3 12 3c1.687 0 2.824 1.918 5.1 5.753l1.924 3.245c2.369 3.993 3.553 5.99 2.7 7.496C20.87 21 18.555 21 13.924 21ZM12 17v-4.5M12 8.998v-.01" stroke="currentColor" stroke-width="1.5" stroke-linecap="round" stroke-linejoin="round"/></svg><svg width="780" height="381" fill="none" viewBox="0 0 780 381" id="-arc-left" xmlns="http://www.w3.org/2000/svg"><path d="M389.299 226.704c130.385 0 236.177-106.128 236.177-236.927h154.049c0 215.981-174.465 391-389.762 391C174.465 380.777 0 205.758 0-10.223h154.049c0 130.799 105.793 236.927 236.178 236.927" fill="url(#aca)" fill-opacity=".8" style="mix-blend-mode:multiply"/><defs><linearGradient id="aca" x1="779.525" y1="185.277" x2="0" y2="185.277" gradientUnits="userSpaceOnUse"><stop stop-color="#BDC9DA"/><stop offset="1" stop-color="#EFF5FE"/></linearGradient></defs></svg><svg width="698" height="311" fill="none" viewBox="0 0 698 311" id="-arc-right" y="381" xmlns="http://www.w3.org/2000/svg"><path d="M349.415 173.083c-116.748 0-211.477-95-211.477-212.083H0c0 193.333 156.219 350 349 350S698 154.333 698-39H560.062c0 117.083-94.729 212.083-211.478 212.083" fill="url(#aea)" fill-opacity=".8"/><defs><linearGradient id="aea" x1="0" y1="136" x2="698" y2="136" gradientUnits="userSpaceOnUse"><stop stop-color="#BDC9DA"/><stop offset="1" stop-color="#EFF5FE"/></linearGradient></defs></svg><svg width="222" height="96" fill="none" viewBox="0 0 222 96" id="-arc-right-mobile" x="780" y="401" xmlns="http://www.w3.org/2000/svg"><path d="M145.826 38.286c48.841 0 88.469-39.754 88.469-88.75H292C292 30.44 226.648 96 146 96S0 30.44 0-50.464h57.705c0 48.996 39.628 88.75 88.469 88.75" fill="url(#ada)" fill-opacity=".8"/><defs><linearGradient id="ada" x1="292" y1="22.768" x2="0" y2="22.768" gradientUnits="userSpaceOnUse"><stop stop-color="#BDC9DA"/><stop offset="1" stop-color="#EFF5FE"/></linearGradient></defs></svg><svg width="24" height="24" fill="none" viewBox="0 0 24 24" id="-arrow-left" x="876" y="645" xmlns="http://www.w3.org/2000/svg"><path d="M19 12H5m0 0 7-7m-7 7 7 7" stroke="#2F4660" stroke-width="2" stroke-linecap="round" stroke-linejoin="round"/></svg><svg width="24" height="24" fill="none" viewBox="0 0 24 24" id="-arrow-left-red" x="900" y="645" xmlns="http://www.w3.org/2000/svg"><path d="M19 12H5m0 0 7-7m-7 7 7 7" stroke="#DF1103" stroke-width="2" stroke-linecap="round" stroke-linejoin="round"/></svg><svg width="24" height="24" fill="none" viewBox="0 0 24 24" id="-arrow-right" x="924" y="645" xmlns="http://www.w3.org/2000/svg"><path d="M5 12h14m0 0-7-7m7 7-7 7" stroke="#2F4660" stroke-width="2" stroke-linecap="round" stroke-linejoin="round"/></svg><svg width="24" height="24" fill="none" viewBox="0 0 24 24" id="-arrow-right-red" x="948" y="645" xmlns="http://www.w3.org/2000/svg"><path d="M5 12h14m0 0-7-7m7 7-7 7" stroke="#DF1103" stroke-width="2" stroke-linecap="round" stroke-linejoin="round"/></svg><svg width="24" height="24" fill="none" viewBox="0 0 24 24" id="-arrow-right-white" x="972" y="645" xmlns="http://www.w3.org/2000/svg"><path d="M5 12h14m0 0-7-7m7 7-7 7" stroke="#FFF" stroke-width="2" stroke-linecap="round" stroke-linejoin="round"/></svg><svg width="24" height="24" fill="none" viewBox="0 0 24 24" id="-arrow-up-down" x="996" y="645" xmlns="http://www.w3.org/2000/svg"><path d="M7 4v16M17 19V4M10 7S7.79 4 7 4 4 7 4 7M20 17s-2.21 3-3 3-3-3-3-3" stroke="#2F4660" stroke-width="2" stroke-linecap="round" stroke-linejoin="round"/></svg><svg width="320" height="401" fill="none" viewBox="0 0 320 401" id="-brand-symbol" x="780" xmlns="http://www.w3.org/2000/svg"><g clip-path="url(#ana)"><path d="M78.696 200.975c0-66.676 54.045-120.775 120.652-120.775V1.424C89.363 1.424.238 90.64.238 200.737s89.125 199.314 199.11 199.314v-78.776c-66.607 0-120.652-54.1-120.652-120.775" fill="#DF1103"/><path d="M199.111 80.437v78.777c-23.23 0-41.955 18.745-41.955 41.998 0 23.253 18.725 41.998 41.955 41.998v78.539c66.607 0 120.415-54.099 120.415-120.537 0-66.438-54.045-120.537-120.415-120.537" fill="#fff"/></g><defs><clipPath id="ana"><path fill="#fff" d="M0 0h320v401H0z"/></clipPath></defs></svg><svg width="159" height="200" fill="none" viewBox="0 0 159 200" id="-brand-symbol-medium" y="692" xmlns="http://www.w3.org/2000/svg"><g clip-path="url(#ala)"><path d="M39.102 100.237C39.102 66.982 65.956 40 99.051 40V.71C44.402.71.118 45.207.118 100.118c0 54.912 44.284 99.409 98.933 99.409v-39.29c-33.096 0-59.949-26.983-59.949-60.237" fill="#DF1103"/><path d="M98.933 40.118v39.29c-11.542 0-20.846 9.35-20.846 20.947 0 11.598 9.304 20.947 20.846 20.947v39.171c33.096 0 59.831-26.982 59.831-60.118s-26.853-60.118-59.83-60.118" fill="#fff"/></g><defs><clipPath id="ala"><path fill="#fff" d="M0 0h159v200H0z"/></clipPath></defs></svg><svg width="100" height="125" fill="none" viewBox="0 0 100 125" id="-brand-symbol-small" x="949" y="497" xmlns="http://www.w3.org/2000/svg"><g clip-path="url(#ama)"><path d="M24.593 62.648C24.593 41.864 41.48 25 62.296 25V.444C27.926.444.074 28.254.074 62.574c0 34.32 27.852 62.13 62.222 62.13v-24.556c-20.815 0-37.703-16.864-37.703-37.648" fill="#DF1103"/><path d="M62.222 25.074V49.63c-7.26 0-13.11 5.843-13.11 13.092 0 7.248 5.85 13.092 13.11 13.092v24.482c20.815 0 37.63-16.864 37.63-37.574 0-20.71-16.89-37.574-37.63-37.574" fill="#fff"/></g><defs><clipPath id="ama"><path fill="#fff" d="M0 0h100v125H0z"/></clipPath></defs></svg><svg width="25" height="24" fill="none" viewBox="0 0 25 24" id="-calculate-red" x="1049" y="595" xmlns="http://www.w3.org/2000/svg"><path d="M22 12.95v-1.9c0-4.03 0-6.046-1.391-7.298C19.217 2.5 16.979 2.5 12.5 2.5c-4.478 0-6.718 0-8.109 1.252S3 7.02 3 11.05v1.9c0 4.03 0 6.046 1.391 7.298C5.782 21.5 8.021 21.5 12.5 21.5c4.478 0 6.718 0 8.109-1.252S22 16.98 22 12.95Z" stroke="#DF1103" stroke-width="1.5"/><path d="M18.5 8h-4m2-2v4M18.5 17.5h-4M18.5 14.5h-4M10.5 17.5l-1.75-1.75m0 0L7 14m1.75 1.75L10.5 14m-1.75 1.75L7 17.5M10.5 8h-4" stroke="#DF1103" stroke-width="1.5" stroke-linecap="round" stroke-linejoin="round"/></svg><svg width="24" height="24" fill="none" viewBox="0 0 24 24" id="-calendar" x="1020" y="645" xmlns="http://www.w3.org/2000/svg"><path d="M16 2v4M8 2v4M13 4h-2C7.229 4 5.343 4 4.172 5.172 3 6.343 3 8.229 3 12v2c0 3.771 0 5.657 1.172 6.828C5.343 22 7.229 22 11 22h2c3.771 0 5.657 0 6.828-1.172C21 19.657 21 17.771 21 14v-2c0-3.771 0-5.657-1.172-6.828C18.657 4 16.771 4 13 4ZM3 10h18M11.995 14h.01m-.01 4h.01m3.986-4H16m-8 0h.009M8 18h.009" stroke="#2F4660" stroke-width="2" stroke-linecap="round" stroke-linejoin="round"/></svg><svg width="24" height="24" fill="none" viewBox="0 0 24 24" id="-cancel" x="1044" y="645" xmlns="http://www.w3.org/2000/svg"><path d="M18 6 6 18m12 0L6 6" stroke="#2F4660" stroke-width="2" stroke-linecap="round" stroke-linejoin="round"/></svg><svg width="20" height="20" fill="none" viewBox="0 0 20 20" id="-chatting" x="949" y="622" xmlns="http://www.w3.org/2000/svg"><path d="M16.667 7.5c-.663-3.321-3.74-5.833-7.434-5.833-4.178 0-7.566 3.212-7.566 7.175 0 1.903.782 3.633 2.057 4.917.28.283.468.669.392 1.066a3.953 3.953 0 0 1-.822 1.761c1.09.201 2.224.02 3.196-.492.344-.181.516-.272.637-.29.085-.013.195-.001.373.03" stroke="#fff" stroke-width="1.5" stroke-linecap="round" stroke-linejoin="round"/><path d="M9.167 13.551c0 2.422 2.052 4.385 4.583 4.385.298 0 .594-.027.887-.082.21-.04.315-.06.389-.048.073.011.177.067.386.177a2.978 2.978 0 0 0 1.935.301 2.425 2.425 0 0 1-.498-1.076c-.045-.243.068-.479.238-.652a4.268 4.268 0 0 0 1.246-3.005c0-2.421-2.052-4.384-4.583-4.384-2.53 0-4.583 1.963-4.583 4.384Z" stroke="#fff" stroke-width="1.5" stroke-linejoin="round"/></svg><svg width="20" height="20" fill="none" viewBox="0 0 20 20" id="-chatting-blue" x="969" y="622" xmlns="http://www.w3.org/2000/svg"><path d="M16.667 7.5c-.663-3.321-3.74-5.833-7.434-5.833-4.178 0-7.566 3.212-7.566 7.175 0 1.903.782 3.633 2.057 4.917.28.283.468.669.392 1.066a3.953 3.953 0 0 1-.822 1.761c1.09.201 2.224.02 3.196-.492.344-.181.516-.272.637-.29.085-.013.195-.001.373.03" stroke="#2F4660" stroke-width="1.5" stroke-linecap="round" stroke-linejoin="round"/><path d="M9.167 13.551c0 2.422 2.052 4.385 4.583 4.385.298 0 .594-.027.887-.082.21-.04.315-.06.389-.048.073.011.177.067.386.177a2.978 2.978 0 0 0 1.935.301 2.425 2.425 0 0 1-.498-1.076c-.045-.243.068-.479.238-.652a4.268 4.268 0 0 0 1.246-3.005c0-2.421-2.052-4.384-4.583-4.384-2.53 0-4.583 1.963-4.583 4.384Z" stroke="#2F4660" stroke-width="1.5" stroke-linejoin="round"/></svg><svg width="20" height="20" fill="none" viewBox="0 0 20 20" id="-chatting-red" x="989" y="622" xmlns="http://www.w3.org/2000/svg"><path d="M16.667 7.5c-.663-3.322-3.74-5.834-7.434-5.834-4.178 0-7.566 3.213-7.566 7.175 0 1.904.781 3.634 2.057 4.917.28.283.468.67.392 1.067a3.954 3.954 0 0 1-.822 1.76c1.09.202 2.224.02 3.196-.492.344-.18.515-.271.637-.29.085-.013.195 0 .373.03" stroke="#DF1103" stroke-width="1.5" stroke-linecap="round" stroke-linejoin="round"/><path d="M9.167 13.55c0 2.422 2.052 4.386 4.583 4.386.298 0 .594-.028.887-.082.21-.04.315-.06.389-.049.073.012.177.067.386.178a2.98 2.98 0 0 0 1.935.3 2.426 2.426 0 0 1-.498-1.076c-.046-.242.068-.479.238-.651a4.268 4.268 0 0 0 1.246-3.005c0-2.422-2.052-4.385-4.583-4.385s-4.583 1.963-4.583 4.385Z" stroke="#DF1103" stroke-width="1.5" stroke-linejoin="round"/></svg><svg width="18" height="18" fill="none" viewBox="0 0 18 18" id="-check-box" x="736" y="670" xmlns="http://www.w3.org/2000/svg"><path d="M4 .5h10A3.5 3.5 0 0 1 17.5 4v10a3.5 3.5 0 0 1-3.5 3.5H4A3.5 3.5 0 0 1 .5 14V4A3.5 3.5 0 0 1 4 .5Z" fill="#fff"/><path d="M4 .5h10A3.5 3.5 0 0 1 17.5 4v10a3.5 3.5 0 0 1-3.5 3.5H4A3.5 3.5 0 0 1 .5 14V4A3.5 3.5 0 0 1 4 .5Z" stroke="#BDC9DA"/><path d="m14.596 5-7.972 7.972L3 9.35" stroke="#DF1103" stroke-width="2" stroke-linecap="round" stroke-linejoin="round"/></svg><svg width="60" height="60" fill="none" viewBox="0 0 60 60" id="-checkmark-badge" x="698" y="442" xmlns="http://www.w3.org/2000/svg"><path d="M47.476 47.5h.024m-.024 0c-1.556 1.544-4.378 1.16-6.356 1.16-2.429 0-3.598.474-5.331 2.208C34.313 52.343 32.334 55 30 55c-2.334 0-4.313-2.657-5.789-4.133-1.733-1.733-2.902-2.208-5.33-2.208-1.98 0-4.8.385-6.357-1.159-1.57-1.556-1.183-4.389-1.183-6.38 0-2.517-.55-3.673-2.343-5.465C6.333 32.989 5 31.655 5 30c0-1.656 1.333-2.989 3.998-5.655 1.6-1.6 2.343-3.184 2.343-5.465 0-1.978-.385-4.8 1.159-6.356 1.556-1.57 4.389-1.183 6.38-1.183 2.28 0 3.866-.743 5.465-2.343C27.011 6.333 28.344 5 30 5c1.656 0 2.989 1.333 5.654 3.998 1.6 1.6 3.185 2.343 5.466 2.343 1.978 0 4.8-.385 6.357 1.159 1.569 1.556 1.182 4.389 1.182 6.38 0 2.517.55 3.673 2.343 5.465C53.666 27.011 55 28.344 55 30c0 1.656-1.333 2.989-3.998 5.654-1.793 1.792-2.343 2.95-2.343 5.466 0 1.991.386 4.824-1.183 6.38Z" stroke="#2F4660" stroke-width="3"/><path d="M22.5 32.232s3 1.63 4.5 4.018c0 0 4.5-9.375 10.5-12.5" stroke="#2F4660" stroke-width="3" stroke-linecap="round" stroke-linejoin="round"/></svg><svg width="24" height="24" fill="none" viewBox="0 0 24 24" id="-checkmark-circle" x="1068" y="645" xmlns="http://www.w3.org/2000/svg"><path d="M22 12c0-5.523-4.477-10-10-10S2 6.477 2 12s4.477 10 10 10 10-4.477 10-10Z" stroke="#2F4660" stroke-width="1.5"/><path d="M8 12.75s1.6.912 2.4 2.25c0 0 2.4-5.25 5.6-7" stroke="#2F4660" stroke-width="1.5" stroke-linecap="round" stroke-linejoin="round"/></svg><svg width="19" height="19" fill="none" viewBox="0 0 19 19" id="-checkmark-circle-small-white" x="698" y="670" xmlns="http://www.w3.org/2000/svg"><g clip-path="url(#awa)" stroke="#fff" stroke-width="1.5"><path d="M17 9.5a7.5 7.5 0 1 0-15 0 7.5 7.5 0 0 0 15 0Z"/><path d="M6.5 10.063s1.2.684 1.8 1.687c0 0 1.8-3.938 4.2-5.25" stroke-linecap="round" stroke-linejoin="round"/></g><defs><clipPath id="awa"><path fill="#fff" transform="translate(.5 .5)" d="M0 0h18v18H0z"/></clipPath></defs></svg><svg width="24" height="24" fill="none" viewBox="0 0 24 24" id="-chevron-down" x="698" y="502" xmlns="http://www.w3.org/2000/svg"><path d="m8 12 4 4 4-4" stroke="#2F4660" stroke-width="2" stroke-linecap="round" stroke-linejoin="round"/></svg><svg width="24" height="24" fill="none" viewBox="0 0 24 24" id="-chevron-left" x="722" y="502" xmlns="http://www.w3.org/2000/svg"><path d="m13 16-4-4 4-4" stroke="#2F4660" stroke-width="2" stroke-linecap="round" stroke-linejoin="round"/></svg><svg width="17" height="17" fill="none" viewBox="0 0 17 17" id="-chevron-left-red" x="390" y="692" xmlns="http://www.w3.org/2000/svg"><path d="M10 13 6 9l4-4" stroke="#DF1103" stroke-width="2" stroke-linecap="round" stroke-linejoin="round"/></svg><svg width="5" height="8" fill="none" viewBox="0 0 5 8" id="-chevron-left-small" x="1088" y="420" xmlns="http://www.w3.org/2000/svg"><g clip-path="url(#baa)"><path d="M4 1 1 4l3 3" stroke="#2F4660" stroke-linecap="round" stroke-linejoin="round"/></g><defs><clipPath id="baa"><path fill="#fff" transform="rotate(-180 2.5 4)" d="M0 0h5v8H0z"/></clipPath></defs></svg><svg width="24" height="24" fill="none" viewBox="0 0 24 24" id="-chevron-right" x="746" y="502" xmlns="http://www.w3.org/2000/svg"><path d="m11 16 4-4-4-4" stroke="#2F4660" stroke-width="2" stroke-linecap="round" stroke-linejoin="round"/></svg><svg width="24" height="24" fill="none" viewBox="0 0 24 24" id="-chevron-right-red" x="698" y="526" xmlns="http://www.w3.org/2000/svg"><path d="m11 16 4-4-4-4" stroke="#DF1103" stroke-width="2" stroke-linecap="round" stroke-linejoin="round"/></svg><svg width="5" height="12" fill="none" viewBox="0 0 5 12" id="-chevron-right-small" x="1088" y="401" xmlns="http://www.w3.org/2000/svg"><path d="m1 9.5 3-3-3-3" stroke="#2F4660" stroke-linecap="round" stroke-linejoin="round"/></svg><svg width="6" height="11" fill="none" viewBox="0 0 6 11" id="-chevron-right-white" x="1093" y="401" xmlns="http://www.w3.org/2000/svg"><path d="m1 9.686 4-4-4-4" stroke="#fff" stroke-width="2" stroke-linecap="round" stroke-linejoin="round"/></svg><svg width="24" height="24" fill="none" viewBox="0 0 24 24" id="-chevron-up" x="722" y="526" xmlns="http://www.w3.org/2000/svg"><path d="m16 15-4-4-4 4" stroke="#2F4660" stroke-width="2" stroke-linecap="round" stroke-linejoin="round"/></svg><svg width="36" height="37" fill="none" viewBox="0 0 36 37" id="-circle-left-arrow" x="780" y="645" xmlns="http://www.w3.org/2000/svg"><rect x="1" y="1.686" width="34" height="34" rx="17" stroke="#DF1103" stroke-width="2"/><path d="M25 18.686H11m0 0 7-7m-7 7 7 7" stroke="#2F4660" stroke-width="2" stroke-linecap="round" stroke-linejoin="round"/></svg><svg width="36" height="37" fill="none" viewBox="0 0 36 37" id="-circle-right-arrow" x="816" y="645" xmlns="http://www.w3.org/2000/svg"><path d="M18 1.686c9.389 0 17 7.611 17 17s-7.611 17-17 17-17-7.611-17-17 7.611-17 17-17Z" stroke="#DF1103" stroke-width="2"/><path d="M8.666 18.686h18.667m0 0-9.334-9.333m9.334 9.333-9.334 9.333" stroke="#2F4660" stroke-width="2" stroke-linecap="round" stroke-linejoin="round"/></svg><svg width="24" height="24" fill="none" viewBox="0 0 24 24" id="-clock" x="746" y="526" xmlns="http://www.w3.org/2000/svg"><path d="M12 22c5.523 0 10-4.477 10-10S17.523 2 12 2 2 6.477 2 12s4.477 10 10 10Z" stroke="#2F4660" stroke-width="2"/><path d="M12 8v4l2 2" stroke="#2F4660" stroke-width="2" stroke-linecap="round" stroke-linejoin="round"/></svg><svg width="19" height="19" fill="none" viewBox="0 0 19 19" id="-clock-small-white" x="717" y="670" xmlns="http://www.w3.org/2000/svg"><path d="M9.5 17a7.5 7.5 0 1 0 0-15 7.5 7.5 0 0 0 0 15Z" stroke="#fff" stroke-width="1.5"/><path d="M9.5 6.5v3L11 11" stroke="#fff" stroke-width="1.5" stroke-linecap="round" stroke-linejoin="round"/></svg><svg width="24" height="24" fill="none" viewBox="0 0 24 24" id="-clock-white" x="698" y="550" xmlns="http://www.w3.org/2000/svg"><path d="M12 22c5.523 0 10-4.477 10-10S17.523 2 12 2 2 6.477 2 12s4.477 10 10 10Z" stroke="#fff" stroke-width="2"/><path d="M12 8v4l2 2" stroke="#fff" stroke-width="2" stroke-linecap="round" stroke-linejoin="round"/></svg><svg width="18" height="18" fill="none" viewBox="0 0 18 18" id="-compare" x="754" y="670" xmlns="http://www.w3.org/2000/svg"><g clip-path="url(#bma)" stroke="#fff" stroke-width="1.5" stroke-linecap="round" stroke-linejoin="round"><path d="M3 12.75h12M14.25 5.25H3M5.25 10.5S3 12.157 3 12.75 5.25 15 5.25 15M12.75 3S15 4.657 15 5.25 12.75 7.5 12.75 7.5"/></g><defs><clipPath id="bma"><path fill="#fff" transform="rotate(-90 9 9)" d="M0 0h18v18H0z"/></clipPath></defs></svg><svg width="12" height="7" fill="none" viewBox="0 0 12 7" id="-down-arrow" x="1088" y="413" xmlns="http://www.w3.org/2000/svg"><path d="M12.067-.5 6.384 6.32 6 6.781l-.384-.46L-.067-.5h12.134Z" fill="#fff" stroke="#BDC9DA" stroke-linejoin="round"/></svg><svg width="16" height="16" fill="none" viewBox="0 0 16 16" id="-down-arrow-white" x="407" y="692" xmlns="http://www.w3.org/2000/svg"><path d="M8 3.333v9.334m0 0L12.667 8M8 12.667 3.333 8" stroke="#fff" stroke-width="2" stroke-linecap="round" stroke-linejoin="round"/></svg><svg width="24" height="24" fill="none" viewBox="0 0 24 24" id="-download" x="722" y="550" xmlns="http://www.w3.org/2000/svg"><path d="M12 14.5v-10m0 10c-.7 0-2.008-1.994-2.5-2.5m2.5 2.5c.7 0 2.008-1.994 2.5-2.5M20 16.5c0 2.482-.518 3-3 3H7c-2.482 0-3-.518-3-3" stroke="#2F4660" stroke-width="2" stroke-linecap="round" stroke-linejoin="round"/></svg><svg width="20" height="20" fill="none" viewBox="0 0 20 20" id="-email" x="1009" y="622" xmlns="http://www.w3.org/2000/svg"><path d="m1.667 5 5.76 3.264c2.125 1.204 3.022 1.204 5.146 0L18.333 5" stroke="#2F4660" stroke-width="2" stroke-linejoin="round"/><path d="M1.68 11.23c.055 2.554.082 3.832 1.024 4.778.943.946 2.255.979 4.879 1.045 1.617.04 3.218.04 4.835 0 2.624-.066 3.936-.099 4.878-1.045.943-.946.97-2.224 1.024-4.778a57.28 57.28 0 0 0 0-2.46c-.054-2.554-.081-3.832-1.024-4.778-.942-.946-2.254-.979-4.878-1.045a95.923 95.923 0 0 0-4.835 0c-2.624.066-3.936.1-4.879 1.045-.942.946-.97 2.224-1.024 4.778a57.558 57.558 0 0 0 0 2.46Z" stroke="#2F4660" stroke-width="2" stroke-linejoin="round"/></svg><svg width="18" height="18" fill="none" viewBox="0 0 18 18" id="-euro" x="318" y="692" xmlns="http://www.w3.org/2000/svg"><g clip-path="url(#bra)" stroke="#2F4660" stroke-width="1.5" stroke-linecap="round"><path d="M3.75 7.5h6M3.75 10.5h6" stroke-linejoin="round"/><path d="M14.25 13.206c-.848 1.524-2.391 2.544-4.154 2.544-2.676 0-4.846-2.35-4.846-5.25v-3c0-2.9 2.17-5.25 4.846-5.25 1.763 0 3.306 1.02 4.154 2.544"/></g><defs><clipPath id="bra"><path fill="#fff" d="M0 0h18v18H0z"/></clipPath></defs></svg><svg width="20" height="20" fill="none" viewBox="0 0 20 20" id="-facebook" x="1029" y="622" xmlns="http://www.w3.org/2000/svg"><g clip-path="url(#bta)"><path d="M10 0C4.477 0 0 4.477 0 10c0 4.69 3.229 8.625 7.584 9.706v-6.65H5.522V10h2.062V8.683c0-3.403 1.54-4.981 4.882-4.981.634 0 1.727.124 2.174.248v2.77a12.853 12.853 0 0 0-1.155-.037c-1.64 0-2.273.621-2.273 2.236V10h3.266l-.56 3.056h-2.706v6.87C16.164 19.33 20 15.114 20 10c0-5.523-4.477-10-10-10Z" fill="#fff"/></g><defs><clipPath id="bta"><path fill="#fff" d="M0 0h20v20H0z"/></clipPath></defs></svg><svg width="20" height="20" fill="none" viewBox="0 0 20 20" id="-facebook-blue" x="1049" y="622" xmlns="http://www.w3.org/2000/svg"><g clip-path="url(#bsa)"><path d="M10 0C4.477 0 0 4.477 0 10c0 4.69 3.229 8.625 7.584 9.706v-6.65H5.522V10h2.062V8.683c0-3.403 1.54-4.981 4.882-4.981.634 0 1.727.124 2.174.248v2.77a12.853 12.853 0 0 0-1.155-.037c-1.64 0-2.273.621-2.273 2.236V10h3.266l-.56 3.056h-2.706v6.87C16.164 19.33 20 15.114 20 10c0-5.523-4.477-10-10-10Z" fill="#0965FE"/></g><defs><clipPath id="bsa"><path fill="#fff" d="M0 0h20v20H0z"/></clipPath></defs></svg><svg fill="none" viewBox="0 0 16 16" width="16" height="16" id="-file" x="423" y="692" xmlns="http://www.w3.org/2000/svg"><path d="M14.5 13.5V5.41a1 1 0 0 0-.3-.7L9.8.29A1 1 0 0 0 9.08 0H1.5v13.5A2.5 2.5 0 0 0 4 16h8a2.5 2.5 0 0 0 2.5-2.5m-1.5 0v-7H8v-5H3v12a1 1 0 0 0 1 1h8a1 1 0 0 0 1-1M9.5 5V2.12L12.38 5zM5.13 5h-.62v1.25h2.12V5zm-.62 3h7.12v1.25H4.5zm.62 3h-.62v1.25h7.12V11z" clip-rule="evenodd" fill="#666" fill-rule="evenodd"/></svg><svg width="24" height="24" fill="none" viewBox="0 0 24 24" id="-filter-horizontal" x="746" y="550" xmlns="http://www.w3.org/2000/svg"><path d="M3 7h3M3 17h6M18 17h3M15 7h6" stroke="#2F4660" stroke-width="2" stroke-linecap="round" stroke-linejoin="round"/><path d="M6 7c0-.932 0-1.398.152-1.765a2 2 0 0 1 1.083-1.083C7.602 4 8.068 4 9 4c.932 0 1.398 0 1.765.152a2 2 0 0 1 1.083 1.083C12 5.602 12 6.068 12 7c0 .932 0 1.398-.152 1.765a2 2 0 0 1-1.083 1.083C10.398 10 9.932 10 9 10c-.932 0-1.398 0-1.765-.152a2 2 0 0 1-1.083-1.083C6 8.398 6 7.932 6 7ZM12 17c0-.932 0-1.398.152-1.765a2 2 0 0 1 1.083-1.083C13.602 14 14.068 14 15 14c.932 0 1.398 0 1.765.152a2 2 0 0 1 1.083 1.083C18 15.602 18 16.068 18 17c0 .932 0 1.398-.152 1.765a2 2 0 0 1-1.083 1.083C16.398 20 15.932 20 15 20c-.932 0-1.398 0-1.765-.152a2 2 0 0 1-1.083-1.083C12 18.398 12 17.932 12 17Z" stroke="#2F4660" stroke-width="2"/></svg><svg fill="none" viewBox="0 0 16 16" width="16" height="16" id="-globe" x="439" y="692" xmlns="http://www.w3.org/2000/svg"><g clip-path="url(#bwa)"><path fill-rule="evenodd" clip-rule="evenodd" d="M10.27 14.1a6.5 6.5 0 0 0 3.67-3.45q-1.24.21-2.7.34-.31 1.83-.97 3.1M8 16A8 8 0 1 0 8 0a8 8 0 0 0 0 16m.48-1.52a7 7 0 0 1-.96 0H7.5a4 4 0 0 1-.84-1.32q-.38-.89-.63-2.08a40 40 0 0 0 3.92 0q-.25 1.2-.63 2.08a4 4 0 0 1-.84 1.31zm2.94-4.76q1.66-.15 2.95-.43a7 7 0 0 0 0-2.58q-1.3-.27-2.95-.43a18 18 0 0 1 0 3.44m-1.27-3.54a17 17 0 0 1 0 3.64 39 39 0 0 1-4.3 0 17 17 0 0 1 0-3.64 39 39 0 0 1 4.3 0m1.1-1.17q1.45.13 2.69.34a6.5 6.5 0 0 0-3.67-3.44q.65 1.26.98 3.1M8.48 1.5l.01.02q.41.37.84 1.31.38.89.63 2.08a40 40 0 0 0-3.92 0q.25-1.2.63-2.08a4 4 0 0 1 .85-1.32 7 7 0 0 1 .96 0m-2.75.4a6.5 6.5 0 0 0-3.67 3.44 29 29 0 0 1 2.7-.34q.31-1.83.97-3.1M4.58 6.28q-1.66.16-2.95.43a7 7 0 0 0 0 2.58q1.3.27 2.95.43a18 18 0 0 1 0-3.44m.17 4.71q-1.45-.12-2.69-.34a6.5 6.5 0 0 0 3.67 3.44q-.65-1.27-.98-3.1" fill="#666"/></g><defs><clipPath id="bwa"><path fill="#fff" d="M0 0h16v16H0z"/></clipPath></defs></svg><svg width="24" height="24" color="#2F4660" fill="none" viewBox="0 0 24 24" id="-info" x="698" y="574" xmlns="http://www.w3.org/2000/svg"><circle cx="12" cy="12" r="10" stroke="currentColor" stroke-width="1.5" stroke-linecap="round" stroke-linejoin="round"/><path d="M12 16v-4.5M12 8.012v-.01" stroke="currentColor" stroke-width="1.5" stroke-linecap="round" stroke-linejoin="round"/></svg><svg width="24" height="24" fill="none" viewBox="0 0 24 24" id="-information-circle" x="722" y="574" xmlns="http://www.w3.org/2000/svg"><path d="M12 2C6.477 2 2 6.477 2 12s4.477 10 10 10 10-4.477 10-10S17.523 2 12 2ZM12 8v4.5" stroke="#DF1103" stroke-width="1.5" stroke-linecap="round" stroke-linejoin="round"/><path d="M12 15.988v.01" stroke="#DF1103" stroke-width="1.8" stroke-linecap="round" stroke-linejoin="round"/></svg><svg width="20" height="20" fill="none" viewBox="0 0 20 20" id="-information-circle-white" x="1069" y="622" xmlns="http://www.w3.org/2000/svg"><path d="M10 18.333a8.333 8.333 0 1 0 0-16.666 8.333 8.333 0 0 0 0 16.666ZM10 13.333v-3.75" stroke="#fff" stroke-width="1.5" stroke-linecap="round" stroke-linejoin="round"/><path d="M10 6.676v-.008" stroke="#fff" stroke-width="1.8" stroke-linecap="round" stroke-linejoin="round"/></svg><svg width="20" height="20" fill="none" viewBox="0 0 20 20" id="-insta" x="758" y="381" xmlns="http://www.w3.org/2000/svg"><g clip-path="url(#caa)" fill="#fff"><path d="M10 1.8c2.672 0 2.988.012 4.04.06.976.042 1.503.206 1.855.343.464.18.8.399 1.148.746.352.352.566.684.746 1.149.137.351.3.882.344 1.855.047 1.055.058 1.371.058 4.04 0 2.671-.011 2.987-.058 4.038-.043.977-.207 1.504-.344 1.856-.18.465-.398.8-.746 1.148a3.077 3.077 0 0 1-1.148.746c-.352.137-.883.301-1.856.344-1.055.047-1.371.059-4.039.059-2.672 0-2.988-.012-4.04-.059-.976-.043-1.503-.207-1.855-.344-.464-.18-.8-.398-1.148-.746a3.076 3.076 0 0 1-.746-1.148c-.137-.352-.3-.883-.344-1.856-.047-1.054-.058-1.37-.058-4.039 0-2.672.011-2.988.058-4.039.043-.976.207-1.504.344-1.855.18-.465.398-.801.746-1.149a3.076 3.076 0 0 1 1.148-.746c.352-.137.883-.3 1.856-.344 1.05-.046 1.367-.058 4.039-.058ZM10 0C7.285 0 6.945.012 5.879.059 4.816.105 4.086.277 3.453.523A4.88 4.88 0 0 0 1.68 1.68 4.9 4.9 0 0 0 .523 3.45C.277 4.085.105 4.811.06 5.874.012 6.945 0 7.285 0 10s.012 3.055.059 4.121c.046 1.063.218 1.793.464 2.426.258.66.598 1.219 1.157 1.773a4.888 4.888 0 0 0 1.77 1.153c.636.246 1.362.418 2.425.465 1.066.046 1.406.058 4.121.058 2.715 0 3.055-.012 4.121-.058 1.063-.047 1.793-.22 2.426-.465a4.888 4.888 0 0 0 1.77-1.153 4.888 4.888 0 0 0 1.152-1.77c.246-.636.418-1.363.465-2.425.047-1.066.058-1.406.058-4.121 0-2.715-.011-3.055-.058-4.121-.047-1.063-.22-1.793-.465-2.426A4.683 4.683 0 0 0 18.32 1.68 4.889 4.889 0 0 0 16.55.527C15.915.281 15.188.11 14.126.062 13.055.012 12.715 0 10 0Z"/><path d="M10 4.863A5.138 5.138 0 0 0 4.863 10a5.138 5.138 0 0 0 10.273 0c0-2.836-2.3-5.137-5.136-5.137Zm0 8.469a3.333 3.333 0 1 1 .001-6.665A3.333 3.333 0 0 1 10 13.332ZM16.54 4.66a1.2 1.2 0 1 1-2.4 0 1.2 1.2 0 0 1 2.4 0Z"/></g><defs><clipPath id="caa"><path fill="#fff" d="M0 0h20v20H0z"/></clipPath></defs></svg><svg width="24" height="24" fill="none" viewBox="0 0 24 24" id="-lightbulb-red" x="746" y="574" xmlns="http://www.w3.org/2000/svg"><path d="M19 9.62c0 2.58-1.27 4.565-3.202 5.872-.45.304-.675.456-.786.63-.11.172-.149.4-.224.854l-.06.353c-.132.798-.199 1.197-.479 1.434-.28.237-.684.237-1.493.237h-2.612c-.809 0-1.213 0-1.493-.237s-.346-.636-.48-1.434l-.058-.353c-.076-.453-.113-.68-.223-.852-.11-.172-.336-.326-.787-.634C5.192 14.183 4 12.199 4 9.62 4 5.413 7.358 2 11.5 2a7.42 7.42 0 0 1 1.5.152" stroke="#DF1103" stroke-width="1.5" stroke-linecap="round" stroke-linejoin="round"/><path d="m16.5 2 .258.697c.338.914.507 1.371.84 1.704.334.334.791.503 1.705.841L20 5.5l-.697.258c-.914.338-1.371.507-1.704.84-.334.334-.503.791-.841 1.705L16.5 9l-.258-.697c-.338-.914-.507-1.371-.84-1.704-.334-.334-.791-.503-1.705-.841L13 5.5l.697-.258c.914-.338 1.371-.507 1.704-.84.334-.334.503-.791.841-1.705L16.5 2ZM13.5 19v1c0 .943 0 1.414-.293 1.707-.293.293-.764.293-1.707.293-.943 0-1.414 0-1.707-.293C9.5 21.414 9.5 20.943 9.5 20v-1" stroke="#DF1103" stroke-width="1.5" stroke-linejoin="round"/></svg><svg width="16" height="16" fill="none" viewBox="0 0 16 16" id="-link-square" x="455" y="692" xmlns="http://www.w3.org/2000/svg"><path d="M7.325 1.252c-2.736.004-4.17.072-5.085.987C1.25 3.228 1.25 4.82 1.25 8c0 3.182 0 4.773.989 5.761.988.988 2.579.988 5.76.988 3.182 0 4.772 0 5.76-.988.917-.916.984-2.349.989-5.085M14.36 1.638l-4.162 4.15m4.162-4.15c-.37-.37-2.866-.336-3.394-.329m3.394.33c.37.37.336 2.868.329 3.397" stroke="#2F4660" stroke-width="1.5" stroke-linecap="round" stroke-linejoin="round"/></svg><svg width="16" height="16" fill="none" viewBox="0 0 16 16" id="-link-square-red" x="471" y="692" xmlns="http://www.w3.org/2000/svg"><path d="M7.325 1.252c-2.736.004-4.17.072-5.085.987C1.25 3.228 1.25 4.82 1.25 8c0 3.182 0 4.773.989 5.761.988.988 2.579.988 5.76.988 3.182 0 4.772 0 5.76-.988.917-.916.984-2.349.989-5.085M14.36 1.638l-4.162 4.15m4.162-4.15c-.37-.37-2.866-.336-3.394-.329m3.394.33c.37.37.336 2.868.329 3.397" stroke="#DF1103" stroke-width="1.5" stroke-linecap="round" stroke-linejoin="round"/></svg><svg width="20" height="20" fill="none" viewBox="0 0 20 20" id="-linkedin" x="758" y="401" xmlns="http://www.w3.org/2000/svg"><g clip-path="url(#cea)"><path d="M18.52 0H1.477C.66 0 0 .645 0 1.441v17.114C0 19.352.66 20 1.477 20H18.52c.816 0 1.48-.648 1.48-1.441V1.44C20 .645 19.336 0 18.52 0ZM5.934 17.043h-2.97V7.496h2.97v9.547ZM4.449 6.195a1.72 1.72 0 1 1-.006-3.439 1.72 1.72 0 0 1 .006 3.44Zm12.594 10.848h-2.965v-4.64c0-1.106-.02-2.532-1.543-2.532-1.543 0-1.777 1.207-1.777 2.453v4.719H7.797V7.496h2.844v1.305h.039c.394-.75 1.363-1.543 2.804-1.543 3.004 0 3.559 1.976 3.559 4.547v5.238Z" fill="#fff"/></g><defs><clipPath id="cea"><path fill="#fff" d="M0 0h20v20H0z"/></clipPath></defs></svg><svg width="24" height="24" fill="none" viewBox="0 0 24 24" id="-mail" x="698" y="598" xmlns="http://www.w3.org/2000/svg"><path d="m2 6 6.913 3.917c2.549 1.444 3.625 1.444 6.174 0L22 6" stroke="#2F4660" stroke-width="2" stroke-linejoin="round"/><path d="M2.016 13.476c.065 3.065.098 4.598 1.229 5.733 1.131 1.136 2.705 1.175 5.854 1.254 1.94.05 3.862.05 5.802 0 3.149-.079 4.723-.118 5.854-1.254 1.131-1.135 1.164-2.668 1.23-5.733.02-.986.02-1.966 0-2.952-.066-3.065-.099-4.598-1.23-5.733-1.131-1.136-2.705-1.175-5.854-1.254a115.11 115.11 0 0 0-5.802 0c-3.149.079-4.723.118-5.854 1.254-1.131 1.135-1.164 2.668-1.23 5.733a69.066 69.066 0 0 0 0 2.952Z" stroke="#2F4660" stroke-width="2" stroke-linejoin="round"/></svg><svg width="24" height="24" color="#2F4660" fill="none" viewBox="0 0 24 24" id="-menu" x="722" y="598" xmlns="http://www.w3.org/2000/svg"><path d="M4 5h16M4 12h16M4 19h16" stroke="currentColor" stroke-width="1.5" stroke-linecap="round" stroke-linejoin="round"/></svg><svg width="24" height="24" fill="none" viewBox="0 0 24 24" id="-minus-sign" x="746" y="598" xmlns="http://www.w3.org/2000/svg"><path d="M20 12H4" stroke="#2F4660" stroke-width="2" stroke-linecap="round" stroke-linejoin="round"/></svg><svg width="48" height="49" fill="none" viewBox="0 0 48 49" id="-nav-left-arrow" x="1049" y="497" xmlns="http://www.w3.org/2000/svg"><g filter="url(#cia)"><rect x="40" y="35.686" width="32" height="32" rx="16" transform="rotate(-180 40 35.686)" fill="#fff"/><path d="M31 19.686H17m0 0 7-7m-7 7 7 7" stroke="#2F4660" stroke-width="2" stroke-linecap="round" stroke-linejoin="round"/></g><defs><filter id="cia" x="0" y=".686" width="48" height="48" filterUnits="userSpaceOnUse" color-interpolation-filters="sRGB"><feFlood flood-opacity="0" result="BackgroundImageFix"/><feColorMatrix in="SourceAlpha" values="0 0 0 0 0 0 0 0 0 0 0 0 0 0 0 0 0 0 127 0" result="hardAlpha"/><feMorphology radius="12" in="SourceAlpha" result="effect1_dropShadow_12274_13111"/><feOffset dy="5"/><feGaussianBlur stdDeviation="10"/><feColorMatrix values="0 0 0 0 0.184314 0 0 0 0 0.27451 0 0 0 0 0.376471 0 0 0 0.3 0"/><feBlend in2="BackgroundImageFix" result="effect1_dropShadow_12274_13111"/><feBlend in="SourceGraphic" in2="effect1_dropShadow_12274_13111" result="shape"/></filter></defs></svg><svg width="48" height="49" fill="none" viewBox="0 0 48 49" id="-nav-right-arrow" x="1049" y="546" xmlns="http://www.w3.org/2000/svg"><g filter="url(#cja)"><rect width="32" height="32" rx="16" transform="matrix(-1 0 0 1 40 3.686)" fill="#fff"/><path d="M17 19.686h14m0 0-7-7m7 7-7 7" stroke="#2F4660" stroke-width="2" stroke-linecap="round" stroke-linejoin="round"/></g><defs><filter id="cja" x="0" y=".686" width="48" height="48" filterUnits="userSpaceOnUse" color-interpolation-filters="sRGB"><feFlood flood-opacity="0" result="BackgroundImageFix"/><feColorMatrix in="SourceAlpha" values="0 0 0 0 0 0 0 0 0 0 0 0 0 0 0 0 0 0 127 0" result="hardAlpha"/><feMorphology radius="12" in="SourceAlpha" result="effect1_dropShadow_12274_13123"/><feOffset dy="5"/><feGaussianBlur stdDeviation="10"/><feColorMatrix values="0 0 0 0 0.184314 0 0 0 0 0.27451 0 0 0 0 0.376471 0 0 0 0.3 0"/><feBlend in2="BackgroundImageFix" result="effect1_dropShadow_12274_13123"/><feBlend in="SourceGraphic" in2="effect1_dropShadow_12274_13123" result="shape"/></filter></defs></svg><svg width="60" height="61" fill="none" viewBox="0 0 60 61" id="-newsletter" x="698" y="381" xmlns="http://www.w3.org/2000/svg"><path d="m12.5 18.3-3.046 2.032c-2.184 1.456-3.277 2.184-3.868 3.295-.592 1.11-.588 2.415-.58 5.025.011 3.143.04 6.344.121 9.584.192 7.687.288 11.53 3.114 14.356 2.826 2.826 6.721 2.923 14.512 3.118 4.846.121 9.65.121 14.496 0 7.79-.195 11.685-.292 14.511-3.118 2.827-2.826 2.922-6.67 3.114-14.356.081-3.24.11-6.441.121-9.584.009-2.61.013-3.915-.579-5.025-.592-1.11-1.684-1.839-3.868-3.295L47.5 18.301" stroke="#2F4660" stroke-width="3" stroke-linejoin="round"/><path d="m5 25.8 17.283 10.37c3.76 2.256 5.64 3.384 7.717 3.384 2.078 0 3.958-1.128 7.718-3.384L55 25.8" stroke="#2F4660" stroke-width="3" stroke-linejoin="round"/><path d="M12.5 30.8v-15c0-4.713 0-7.07 1.464-8.535 1.465-1.464 3.822-1.464 8.536-1.464h15c4.714 0 7.071 0 8.535 1.464C47.5 8.73 47.5 11.087 47.5 15.801v15" stroke="#2F4660" stroke-width="3"/><path d="M25 25.8h10m-10-10h10" stroke="#2F4660" stroke-width="3" stroke-linecap="round" stroke-linejoin="round"/></svg><svg width="24" height="24" fill="none" viewBox="0 0 24 24" id="-notification" x="698" y="622" xmlns="http://www.w3.org/2000/svg"><path d="M15.5 18a3.5 3.5 0 1 1-7 0M19.231 18H4.77a1.769 1.769 0 0 1-1.25-3.02l.602-.603A3 3 0 0 0 5 12.256V9.5a7 7 0 0 1 14 0v2.756a3 3 0 0 0 .879 2.121l.603.603a1.77 1.77 0 0 1-1.25 3.02Z" stroke="#2F4660" stroke-width="2" stroke-linecap="round" stroke-linejoin="round"/></svg><svg width="24" height="24" fill="none" viewBox="0 0 24 24" id="-notification-white" x="722" y="622" xmlns="http://www.w3.org/2000/svg"><path d="M15.5 18a3.5 3.5 0 1 1-7 0M19.231 18H4.77a1.769 1.769 0 0 1-1.25-3.02l.602-.603A3 3 0 0 0 5 12.256V9.5a7 7 0 0 1 14 0v2.756a3 3 0 0 0 .879 2.121l.603.603a1.77 1.77 0 0 1-1.25 3.02Z" stroke="#fff" stroke-width="2" stroke-linecap="round" stroke-linejoin="round"/></svg><svg width="86" height="85" fill="none" y="401" viewBox="0 0 86 85" id="-play" x="1002" xmlns="http://www.w3.org/2000/svg"><path d="M43 80.75c21.125 0 38.25-17.125 38.25-38.25S64.125 4.25 43 4.25 4.75 21.375 4.75 42.5 21.875 80.75 43 80.75z" stroke="#fff" stroke-width="3.188" stroke-linecap="round" stroke-linejoin="round"/><path d="M35.35 27.2 58.3 42.5 35.35 57.8V27.2z" stroke="#fff" stroke-width="3.188" stroke-linecap="round" stroke-linejoin="round"/></svg><svg width="24" height="24" fill="none" viewBox="0 0 24 24" id="-plus-sign" x="746" y="622" xmlns="http://www.w3.org/2000/svg"><path d="M12 4v16m8-8H4" stroke="#2F4660" stroke-width="2" stroke-linecap="round" stroke-linejoin="round"/></svg><svg width="169" height="148" fill="none" viewBox="0 0 169 148" id="-quote" x="780" y="497" xmlns="http://www.w3.org/2000/svg"><path d="M115.958 147.602a21.085 21.085 0 0 1-21.083-21.084v-63.25c0-32.995 17.394-54.743 50.147-62.933a10.54 10.54 0 0 1 13.059 11.772 10.536 10.536 0 0 1-7.936 8.678c-23.476 5.872-34.187 19.26-34.187 42.483V73.81h31.625a21.085 21.085 0 0 1 21.031 19.502l.053 1.581v31.625a21.084 21.084 0 0 1-21.084 21.084h-31.625Zm-94.875 0A21.084 21.084 0 0 1 0 126.518v-63.25C0 30.273 17.394 8.525 50.147.335a10.542 10.542 0 1 1 5.123 20.45c-23.476 5.872-34.187 19.26-34.187 42.483V73.81h31.625A21.084 21.084 0 0 1 73.74 93.312l.053 1.581v31.625a21.08 21.08 0 0 1-21.084 21.084H21.083Z" fill="#EFF5FE"/></svg><svg width="18" height="18" fill="none" viewBox="0 0 18 18" id="-radio-box" x="336" y="692" xmlns="http://www.w3.org/2000/svg"><path d="M9 .5a8.5 8.5 0 1 1 0 17 8.5 8.5 0 0 1 0-17Z" fill="#fff"/><path d="M9 .5a8.5 8.5 0 1 1 0 17 8.5 8.5 0 0 1 0-17Z" stroke="#BDC9DA"/><circle cx="9" cy="9" r="5" fill="#DF1103"/></svg><svg width="24" height="24" fill="none" viewBox="0 0 24 24" id="-reload" x="698" y="646" xmlns="http://www.w3.org/2000/svg"><path d="m15.167 1 .598 1.118c.404.755.606 1.133.472 1.295-.133.162-.573.031-1.454-.23A9.766 9.766 0 0 0 12 2.78C6.753 2.78 2.5 6.908 2.5 12a8.97 8.97 0 0 0 1.27 4.61M8.834 23l-.598-1.118c-.404-.756-.606-1.134-.472-1.295.133-.162.573-.032 1.454.23.88.261 1.815.402 2.783.402 5.247 0 9.5-4.128 9.5-9.22a8.97 8.97 0 0 0-1.27-4.609" stroke="#2F4660" stroke-width="2" stroke-linecap="round" stroke-linejoin="round"/></svg><svg width="24" height="24" color="#DF1103" fill="none" viewBox="0 0 24 24" id="-search" x="722" y="646" xmlns="http://www.w3.org/2000/svg"><path d="m17 17 4 4M19 11a8 8 0 1 0-16 0 8 8 0 0 0 16 0Z" stroke="currentColor" stroke-width="1.5" stroke-linecap="round" stroke-linejoin="round"/></svg><svg width="24" height="24" color="#2F4660" fill="none" viewBox="0 0 24 24" id="-search-blue" x="746" y="646" xmlns="http://www.w3.org/2000/svg"><path d="m17 17 4 4M19 11a8 8 0 1 0-16 0 8 8 0 0 0 16 0Z" stroke="currentColor" stroke-width="1.5" stroke-linecap="round" stroke-linejoin="round"/></svg><svg width="24" height="24" color="#fff" fill="none" viewBox="0 0 24 24" id="-search-white" x="270" y="692" xmlns="http://www.w3.org/2000/svg"><path d="m17 17 4 4M19 11a8 8 0 1 0-16 0 8 8 0 0 0 16 0Z" stroke="currentColor" stroke-width="1.5" stroke-linecap="round" stroke-linejoin="round"/></svg><svg width="24" height="24" fill="none" viewBox="0 0 24 24" id="-share-blue" x="294" y="692" xmlns="http://www.w3.org/2000/svg"><path d="M21 6.5a3 3 0 1 1-6 0 3 3 0 0 1 6 0ZM9 12a3 3 0 1 1-6 0 3 3 0 0 1 6 0ZM21 17.5a3 3 0 1 1-6 0 3 3 0 0 1 6 0ZM8.729 10.75l6.5-3m-6.5 5.5 6.5 3" stroke="#2F4660" stroke-width="2"/></svg><svg width="18" height="18" fill="none" viewBox="0 0 18 18" id="-tick" x="354" y="692" xmlns="http://www.w3.org/2000/svg"><path d="m2 11 3.5 3.5L16 3.5" stroke="#fff" stroke-width="1.5" stroke-linecap="round" stroke-linejoin="round"/></svg><svg width="14" height="14" fill="none" viewBox="0 0 14 14" id="-tick-blue" x="487" y="692" xmlns="http://www.w3.org/2000/svg"><path d="m2.917 8.166 2.041 2.042 6.125-6.417" stroke="#2F4660" stroke-width="1.5" stroke-linecap="round" stroke-linejoin="round"/></svg><svg width="14" height="10" fill="none" viewBox="0 0 14 10" id="-tick-red" x="1002" y="486" xmlns="http://www.w3.org/2000/svg"><path d="M12.596 1 4.624 8.972 1 5.35" stroke="#DF1103" stroke-width="2" stroke-linecap="round" stroke-linejoin="round"/></svg><svg width="18" height="18" fill="none" viewBox="0 0 18 18" id="-tooltip" x="372" y="692" xmlns="http://www.w3.org/2000/svg"><path d="M9 18A9 9 0 1 0 9 0a9 9 0 0 0 0 18Z" fill="#BDC9DA" fill-opacity=".7"/><path d="M9 12.6V8.55" stroke="#2F4660" stroke-width="1.5" stroke-linecap="round" stroke-linejoin="round"/><path d="M9 5.412v-.01" stroke="#2F4660" stroke-width="1.8" stroke-linecap="round" stroke-linejoin="round"/></svg><svg width="111" height="111" fill="none" viewBox="0 0 111 111" id="-user-check" x="159" y="692" xmlns="http://www.w3.org/2000/svg"><path d="M69.375 37c0-12.772-10.353-23.125-23.125-23.125S23.125 24.228 23.125 37 33.478 60.125 46.25 60.125 69.375 49.772 69.375 37ZM13.875 92.5c0-17.88 14.495-32.375 32.375-32.375 9.059 0 17.249 3.72 23.125 9.717M60.125 85.563s6.237 2.343 9.25 11.562c0 0 14.691-23.125 27.75-27.75" stroke="#BDC9DA" stroke-width="4" stroke-linecap="round" stroke-linejoin="round"/></svg><svg width="20" height="20" fill="none" viewBox="0 0 20 20" id="-vimeo" x="758" y="421" xmlns="http://www.w3.org/2000/svg"><path d="M19.26 5.23c-.084 2.03-1.343 4.812-3.779 8.353-2.518 3.709-4.648 5.532-6.407 5.532-1.065 0-1.981-1.125-2.731-3.386-.51-2.041-.973-4.104-1.491-6.166-.556-2.25-1.148-3.375-1.796-3.375-.13 0-.612.333-1.445.99l-.87-1.272C1.667 5 2.556 4.094 3.444 3.188 4.667 2 5.584 1.375 6.185 1.313c1.445-.167 2.333.958 2.667 3.333.36 2.573.61 4.167.75 4.792.398 2.124.86 3.166 1.37 3.166.39 0 .972-.666 1.75-2.052.778-1.375 1.195-2.427 1.25-3.156.111-1.188-.305-1.781-1.25-1.781-.444 0-.898.114-1.37.343.907-3.364 2.648-5 5.213-4.906 1.907.063 2.805 1.458 2.694 4.177Z" fill="#fff"/></svg><svg width="20" height="20" fill="none" viewBox="0 0 20 20" id="-whatsapp" x="758" y="442" xmlns="http://www.w3.org/2000/svg"><path d="M16.377 3.619A8.921 8.921 0 0 0 10.037 1C5.096 1 1.071 5.005 1.071 9.92a8.91 8.91 0 0 0 1.194 4.455L1 19l4.749-1.242a9.002 9.002 0 0 0 4.287 1.089c4.939 0 8.964-4.005 8.964-8.919a8.84 8.84 0 0 0-2.623-6.309Zm-6.34 13.716c-1.34 0-2.651-.36-3.8-1.035l-.271-.162-2.822.738.75-2.736-.18-.279a7.406 7.406 0 0 1-1.14-3.942c0-4.086 3.347-7.416 7.453-7.416 1.99 0 3.862.774 5.264 2.178a7.36 7.36 0 0 1 2.18 5.247c.018 4.086-3.328 7.407-7.435 7.407Zm4.088-5.544c-.226-.108-1.33-.648-1.529-.729-.208-.072-.353-.108-.507.108-.153.225-.578.729-.705.873-.127.153-.262.171-.489.054-.226-.108-.95-.351-1.8-1.107-.669-.594-1.112-1.323-1.248-1.548-.126-.225-.018-.342.1-.459.1-.099.226-.261.334-.387.109-.126.154-.225.227-.369.072-.153.036-.279-.019-.387a73.83 73.83 0 0 1-.687-1.656c-.18-.432-.37-.378-.507-.387h-.434a.814.814 0 0 0-.597.279c-.199.225-.778.765-.778 1.863 0 1.098.805 2.16.914 2.304.109.153 1.583 2.403 3.826 3.366.534.234.95.369 1.275.468.534.171 1.023.144 1.412.09.434-.063 1.33-.54 1.51-1.062.19-.522.19-.963.127-1.062-.064-.099-.2-.144-.425-.252Z" fill="#25D366"/></svg><svg width="20" height="20" fill="none" viewBox="0 0 20 20" id="-x" x="758" y="462" xmlns="http://www.w3.org/2000/svg"><path d="M15.272 1.587h2.811l-6.142 7.02 7.226 9.551h-5.658l-4.43-5.793-5.07 5.793H1.194l6.57-7.508L.832 1.587h5.801l4.005 5.295 4.633-5.295Zm-.987 14.889h1.558L5.788 3.18H4.116l10.17 13.295Z" fill="#fff"/></svg><svg width="20" height="20" fill="none" viewBox="0 0 20 20" id="-x-black" x="758" y="482" xmlns="http://www.w3.org/2000/svg"><path d="M15.272 1.587h2.81l-6.14 7.02 7.224 9.551H13.51l-4.431-5.793-5.07 5.793H1.195l6.57-7.508L.832 1.587h5.8l4.006 5.295 4.633-5.295Zm-.987 14.889h1.558L5.787 3.18H4.116l10.169 13.295Z" fill="#000"/></svg></svg>